<?xml version="1.0" encoding="UTF-8" standalone="no"?>
<svg width="350px" height="350px" viewBox="0 0 350 350" version="1.1" xmlns="http://www.w3.org/2000/svg" xmlns:xlink="http://www.w3.org/1999/xlink">
    <!-- Generator: Sketch 39.1 (31720) - http://www.bohemiancoding.com/sketch -->
    <title>Slice 3</title>
    <desc>Created with Sketch.</desc>
    <defs></defs>
    <g id="Page-1" stroke="none" stroke-width="1" fill="none" fill-rule="evenodd">
        <g id="cocobag">
            <path d="M69.4034006,212.025899 C62.1266196,173.170812 71.6088679,147.919242 82.073929,127.780938 C92.53899,107.642635 116.746707,96.454173 150.752803,85.9566614 C184.758899,75.4591498 233.10722,87.2162151 256.439643,110.553559 C279.772066,133.890903 279.658563,148.522059 285.317707,183.068547 C290.976851,217.615036 286.271601,228.287657 264.367725,259.563802 C242.463849,290.839946 161.335006,307.883702 126.103656,288.816655 C90.8723065,269.749608 76.6801816,250.880987 69.4034006,212.025899 Z" id="Path-40" stroke="#000000" fill="#4B380B"></path>
            <g id="Group" transform="translate(177.648510, 82.160507) rotate(-2.000000) translate(-177.648510, -82.160507) translate(115.148510, 48.160507)">
                <path d="M0.497986042,62.4119806 L6.3483393,19.9449393 L15.1105662,9.79131964 C15.1105662,9.79131964 42.9043674,2.99736875 67.8721392,1.27347334 C92.839911,-0.450422079 118.368267,2.66190987 118.368267,2.66190987 L121.214118,5.73933166 L124.29154,14.7567786 L112.722878,56.8651304 L101.102974,56.8651322 L95.9542299,51.9341624 L102.262797,25.492773 C102.262797,25.492773 89.1972517,24.9047029 67.8721392,26.8703699 C46.5470267,28.8360369 25.2700983,32.5896644 25.2700983,32.5896644 L19.941025,65.9328375 L5.81720566,67.2256871 L0.497986042,62.4119806 Z" id="Combined-Shape" stroke="#000000" fill="#8B572A"></path>
                <path d="M95.901018,51.9341624 L102.308125,25.5036125 L116.06833,24.9665664 C116.06833,24.9665664 111.402823,27.1378702 109.21779,29.4117311 C107.032756,31.685592 105.984674,35.4601507 105.984674,35.4601507 L100.919689,56.4906781 L95.901018,51.9341624 Z" id="Path-39" fill-opacity="0.5" fill="#000000"></path>
            </g>
            <path d="M83.8868809,209.988256 C83.651681,206.595123 85.8953526,196.211965 92.5786132,194.459483 C99.2618738,192.707 104.868206,196.884593 108.179195,203.618333 C111.490185,210.352073 110.082389,218.054796 107.147764,224.089564 C104.213138,230.124331 98.563313,232.095431 91.6088353,227.879459 C84.6543576,223.663487 84.1220809,213.38139 83.8868809,209.988256 Z" id="Path-41" stroke="#000000" fill-opacity="0.5" fill="#000000"></path>
            <path d="M91.2860598,167.337622 C88.7055961,161.930889 89.4061563,158.772094 92.7287583,152.00469 C96.0513602,145.237286 99.3509697,142.981003 103.750278,141.950772 C108.149586,140.920541 111.927804,144.205148 114.306856,150.134042 C116.685907,156.062935 114.477155,159.490073 111.306856,165.139121 C108.136556,170.788169 102.163237,171.772342 102.163237,171.772342 C102.163237,171.772342 93.8665235,172.744355 91.2860598,167.337622 Z" id="Path-42" stroke="#000000" fill-opacity="0.5" fill="#000000"></path>
            <path d="M67.2642967,177.697448 C67.6486477,170.312445 68.6932137,165.451742 68.6932137,165.451742 C68.6932137,165.451742 71.8440844,160.389604 76.4093655,161.968666 C80.9746466,163.547728 85.4348656,168.358223 87.0522585,174.514848 C88.6696514,180.671472 86.907427,186.741881 82.1794339,191.184579 C77.4514409,195.627276 67.2642967,192.907258 67.2642967,192.907258 C67.2642967,192.907258 66.8799456,185.08245 67.2642967,177.697448 Z" id="Path-43" stroke="#000000" fill-opacity="0.5" fill="#000000"></path>
            <path d="M150.745866,233.801366 C84.0838063,192.129831 85.6035775,122.998593 85.6035775,122.998593 C85.6035775,122.998593 67.7494097,142.99089 66.4996509,180.525151 C65.2498921,218.059412 81.4210611,248.612967 81.4210611,248.612967 C81.4210611,248.612967 95.2948759,273.839003 120.623673,286.641568 C145.952471,299.444133 176.449774,296.645697 176.449774,296.645697 C176.449774,296.645697 216.723726,292.239131 239.242433,280.057736 C261.761139,267.876342 276.665452,242.434469 276.665452,242.434469 C276.665452,242.434469 217.407925,275.4729 150.745866,233.801366 Z" id="Path-44" fill-opacity="0.25" fill="#000000"></path>
        </g>
    </g>
</svg>