<?xml version="1.0" encoding="UTF-8" standalone="no"?>
<svg width="400px" height="400px" viewBox="0 0 400 400" version="1.1" xmlns="http://www.w3.org/2000/svg" xmlns:xlink="http://www.w3.org/1999/xlink">
    <!-- Generator: Sketch 39.1 (31720) - http://www.bohemiancoding.com/sketch -->
    <title>hapipip</title>
    <desc>Created with Sketch.</desc>
    <defs></defs>
    <g id="Page-1" stroke="none" stroke-width="1" fill="none" fill-rule="evenodd">
        <g id="Hapipip">
            <polygon id="H" fill="#000000" points="24 132.902344 47.375 145.933594 59.859375 176.640625 75.6914062 176.640625 69.5234375 132.902344 88.9726563 126 146.992188 279.582031 103.3125 263.257812 88.9726563 201.660156 75.6914062 206.029297 75.6914062 263.257812 59.859375 279.582031"></polygon>
            <path d="M143.25,250.199219 L167.5625,214.851562 L151.890625,172.253906 L159.246094,162.15625 L181.332031,204.820312 L214.59375,187.800781 L134.050781,101.183594 L117.679688,131.84375 L143.25,250.199219 Z M135.019531,127.460938 L135.019531,157.285156 L151.648438,149.03125 L135.019531,127.460938 Z" id="A" fill="#000000"></path>
            <path d="M226.390625,178.46875 L154.960938,107.734375 L180.972656,55.703125 L238.369576,100.541714 L217.740452,134.216873 L306.199219,172.425781 L226.390625,178.46875 Z M183.695312,89.3867188 L183.695312,112.226562 L212.136719,111.226562 L203.105469,94.0703125 L183.695312,89.3867188 Z" id="P" fill="#040404"></path>
            <path d="M219.90625,53.1757812 L249.167969,86.0039062 L259.160156,61.4257812 L219.90625,53.1757812 Z M327.460938,160.363281 L243.707031,120.804688 L269.324219,76.8164062 L338.710938,144.816406 L327.460938,160.363281 Z" id="I" fill="#000000"></path>
            <path d="M225.078125,320.975174 L180.981463,223.286493 L217.652344,211 L261.679688,238.789063 L225.078125,265.851563 L294.34375,312.4375 L225.078125,320.975174 Z M202,232 L228.703125,238.601562 L216.324219,261.359375 L202,232 Z" id="P" fill="#000000"></path>
            <polygon id="I" fill="#000000" points="249 261.757812 276.136719 242 306.050781 301.574219"></polygon>
            <path d="M325.226562,288.101562 L249,192.175781 L318.076172,186 L388.527344,215.210938 L318.076172,246.429688 L374.753906,288.101562 L325.226562,288.101562 Z M291,207 L300.199219,230.0625 L346.789062,212.472656 L291,207 Z" id="P" fill="#000000"></path>
        </g>
    </g>
</svg>