<?xml version="1.0" encoding="UTF-8" standalone="no"?>
<svg width="1198px" height="314px" viewBox="0 0 1198 314" version="1.1" xmlns="http://www.w3.org/2000/svg" xmlns:xlink="http://www.w3.org/1999/xlink">
    <!-- Generator: Sketch 39.1 (31720) - http://www.bohemiancoding.com/sketch -->
    <title>full</title>
    <desc>Created with Sketch.</desc>
    <defs></defs>
    <g id="Page-1" stroke="none" stroke-width="1" fill="none" fill-rule="evenodd">
        <g id="Houra" fill="#000000">
            <path d="M52.3595341,253.156506 L79.3797241,85.2913345 L108.830337,80.6363448 L108.617841,136.662234 L129.143623,127.876854 L132.683009,73.9095194 L164.265221,78.4914637 C164.265221,78.4914637 153.421526,119.515849 164.26522,179.628659 C175.108913,239.741469 201.579841,285.347798 201.579841,285.347798 L132.683005,225.151798 L132.683005,155.616246 L118.120223,167.825955 L106.897951,260.148951 L52.3595341,253.156506 Z" id="H" transform="translate(126.969687, 179.628659) rotate(14.000000) translate(-126.969687, -179.628659) "></path>
            <path d="M240.424653,263.893513 C280.189155,263.893513 312.424653,225.837717 312.424653,178.893513 C312.424653,131.949309 280.189155,93.8935132 240.424653,93.8935132 C200.660151,93.8935132 168.424653,131.949309 168.424653,178.893513 C168.424653,225.837717 200.660151,263.893513 240.424653,263.893513 Z M256.924653,151.893513 C266.037352,151.893513 273.424653,143.163066 273.424653,132.393513 C273.424653,121.623961 266.037352,112.893513 256.924653,112.893513 C247.811955,112.893513 240.424653,121.623961 240.424653,132.393513 C240.424653,143.163066 247.811955,151.893513 256.924653,151.893513 Z" id="O" transform="translate(240.424653, 178.893513) rotate(14.000000) translate(-240.424653, -178.893513) "></path>
            <path d="M402.328335,101.816961 L421.77401,265.483318 C421.77401,265.483318 382.271833,287.021358 350.588648,283.695688 C318.905464,280.370017 288.424998,251.486149 288.424998,251.486149 C288.424998,251.486149 314.274033,209.619612 317.291445,181.524701 C320.308858,153.42979 302.878321,116.912279 302.878321,116.912279 L342.513033,73.1383916 L355.276897,215.314828 L377.265208,202.246861 L360.742298,67.1070223 L402.328335,101.816961 Z" id="U"></path>
            <path d="M411.728455,259.890042 L427.166834,75.1664184 C427.166834,75.1664184 459.266289,52.8241841 488.701171,55.7878794 C518.136053,58.7515747 540.960859,68.1338167 546.687273,87.2005133 C552.413686,106.26721 552.754002,130.472119 536.877664,145.700802 C521.001326,160.929485 494.201187,175.013806 494.201187,175.013806 L565.814911,269.030697 L536.877663,303.504254 L450.310356,175.013806 L472.710412,303.504247 L411.728455,259.890042 Z M489.007796,97.2109248 C499.777349,97.2109248 508.507796,94.0769181 508.507796,90.2109248 C508.507796,86.3449316 499.777349,83.2109248 489.007796,83.2109248 C478.238244,83.2109248 469.507796,86.3449316 469.507796,90.2109248 C469.507796,94.0769181 478.238244,97.2109248 489.007796,97.2109248 Z" id="R" transform="translate(488.771683, 179.510678) rotate(-14.000000) translate(-488.771683, -179.510678) "></path>
            <path d="M529.349128,186.680104 L587.718134,245.100163 L598.665513,184.174824 L612.118172,199.73892 L607.253481,288.473957 L693.147743,202.904251 L588.691802,55.6434006 L542.437118,69.9129194 L529.349128,186.680104 Z M568,89 L575.056355,116.966506 L610.929871,116.966507 L568,89 Z" id="A"></path>
            <g id="\o/" transform="translate(701.000000, 4.000000)">
                <polygon id="Path-50" points="186.736415 272.304631 25.5167019 74.5739897 99.9623068 73.6834793 226.985354 275.509402"></polygon>
                <polygon id="Path-51" points="335 275.374878 394.933529 257.40686 458.168289 96.3263432 431.759026 17.607105"></polygon>
                <path d="M273.5,266 C310.779221,266 341,230.18278 341,186 C341,141.81722 310.779221,106 273.5,106 C236.220779,106 206,141.81722 206,186 C206,230.18278 236.220779,266 273.5,266 Z M300.5,228 C307.403559,228 313,218.59798 313,207 C313,195.40202 307.403559,186 300.5,186 C293.596441,186 288,195.40202 288,207 C288,218.59798 293.596441,228 300.5,228 Z" id="Combined-Shape"></path>
            </g>
        </g>
    </g>
</svg>