<?xml version="1.0" encoding="UTF-8" standalone="no"?>
<svg width="500px" height="300px" viewBox="0 0 500 300" version="1.1" xmlns="http://www.w3.org/2000/svg" xmlns:xlink="http://www.w3.org/1999/xlink">
    <!-- Generator: Sketch 39.1 (31720) - http://www.bohemiancoding.com/sketch -->
    <title>logo</title>
    <desc>Created with Sketch.</desc>
    <defs></defs>
    <g id="Page-1" stroke="none" stroke-width="1" fill="none" fill-rule="evenodd">
        <g id="Houra" transform="translate(-701.000000, -4.000000)" fill="#000000">
            <g id="\o/" transform="translate(701.000000, 4.000000)">
                <polygon id="Path-50" points="186.736415 272.304631 25.5167019 74.5739897 99.9623068 73.6834793 226.985354 275.509402"></polygon>
                <polygon id="Path-51" points="335 275.374878 394.933529 257.40686 458.168289 96.3263432 431.759026 17.607105"></polygon>
                <path d="M273.5,266 C310.779221,266 341,230.18278 341,186 C341,141.81722 310.779221,106 273.5,106 C236.220779,106 206,141.81722 206,186 C206,230.18278 236.220779,266 273.5,266 Z M300.5,228 C307.403559,228 313,218.59798 313,207 C313,195.40202 307.403559,186 300.5,186 C293.596441,186 288,195.40202 288,207 C288,218.59798 293.596441,228 300.5,228 Z" id="Combined-Shape"></path>
            </g>
        </g>
    </g>
</svg>