<?xml version="1.0" encoding="UTF-8" standalone="no"?>
<svg width="330px" height="330px" viewBox="0 0 330 330" version="1.1" xmlns="http://www.w3.org/2000/svg" xmlns:xlink="http://www.w3.org/1999/xlink">
    <!-- Generator: Sketch 39.1 (31720) - http://www.bohemiancoding.com/sketch -->
    <title>mask</title>
    <desc>Created with Sketch.</desc>
    <defs></defs>
    <g id="Page-1" stroke="none" stroke-width="1" fill="none" fill-rule="evenodd">
        <g id="Mask">
            <path d="M45.8726491,91.1533842 C48.7607188,78.1033544 62.3533344,62.4145573 86.6595255,49.9936513 C110.965717,37.5727454 148.730905,32.481963 148.730905,32.481963 L188.46451,30.6998281 C188.46451,30.6998281 201.695855,34.3055844 209.449889,38.35711 C217.203922,42.4086356 220.803997,42.9746571 228.817443,54.699666 C236.830888,66.4246749 229.204178,64.1777143 241.391387,88.8888502 C253.578595,113.599986 263.130908,126.518019 263.130908,126.518019 C263.130908,126.518019 271.140563,137.51033 272.991637,157.715911 C274.842711,177.921492 267.190216,184.570375 267.190215,204.068267 C267.190214,223.566158 272.991633,242.967688 272.991633,242.967688 C272.991633,242.967688 272.224169,247.582856 272.991637,258.459197 C273.759105,269.335538 280.682616,273.013305 275.641661,280.523131 C270.600707,288.032958 248.549422,300.590056 248.549422,300.590056 C248.549422,300.590056 211.741585,310.733225 191.478972,309.761936 C171.216359,308.790648 158.32199,305.089629 139.613791,284.325438 C120.905593,263.561248 99.1471085,231.876741 99.1471085,231.876741 C99.1471085,231.876741 80.1127604,209.557012 73.2956192,193.704085 C66.4784779,177.851158 71.6567628,173.364833 67.2561619,157.715913 C62.8555609,142.066994 61.2865625,148.381433 54.7980697,127.92519 C48.3095768,107.468946 42.9845795,104.203414 45.8726491,91.1533842 Z M136.588794,148.95059 C129.082648,148.837801 122.727745,144.153993 122.727745,144.153993 C122.727745,144.153993 117.368448,139.52023 125.58211,132.27836 C133.795773,125.03649 150.218124,119.916115 150.218124,119.916115 C150.218124,119.916115 158.857274,118.666003 164.283507,119.916115 C169.70974,121.166227 174.082274,120.96486 176.231817,125.909229 C178.38136,130.853597 177.822676,131.950209 171.827036,137.267706 C165.831397,142.585204 155.111623,144.640604 155.111623,144.640604 C155.111623,144.640604 144.09494,149.06338 136.588794,148.95059 Z M231.435869,123.68472 C224.750145,119.421916 220.997952,119.126162 220.997952,119.126162 C220.997952,119.126162 225.522912,132.195906 227.905304,135.026344 C230.287697,137.856783 231.258878,137.636976 237.060338,138.20933 C242.861798,138.781684 249.236154,137.13078 249.236154,137.13078 C249.236154,137.13078 238.121594,127.947524 231.435869,123.68472 Z M205.790821,210.834488 C202.121007,214.064534 205.790821,218.354845 205.790821,218.354845 C205.790821,218.354845 209.827086,226.760187 216.376197,229.009737 C222.925309,231.259287 234.82951,228.329324 234.82951,228.329324 C234.82951,228.329324 243.000152,228.527102 247.171742,223.315753 C251.343331,218.104403 250.23387,214.289234 248.833804,210.834489 C247.433737,207.379743 247.419809,207.964076 238.47383,206.735157 C229.527851,205.506237 218.992523,206.735157 218.992523,206.735157 C218.992523,206.735157 209.460636,207.604442 205.790821,210.834488 Z" id="Combined-Shape" stroke="#000000" fill="#2FFC40"></path>
            <path d="M148.288531,31.9763928 L152.596411,33.8027652 C152.596411,33.8027652 159.730187,52.6682916 170.006984,72.67058 C180.283781,92.6728685 187.561945,99.0832781 192.178344,110.843233 C204.560296,142.385396 207.646685,174.039511 207.646685,174.039511 L236.611644,171.789724 L243.521104,162.447208 C243.521104,162.447208 231.020176,145.087399 222.190257,124.245058 C213.360339,103.402717 209.340915,85.5289288 207.646686,77.7684118 C203.854911,60.3999654 186.695014,25.4187261 186.695014,25.4187261 C186.695014,25.4187261 161.135803,26.7441293 155.956346,27.6284893 C150.776889,28.5128492 148.288531,31.9763928 148.288531,31.9763928 Z" id="Path" stroke="#000000" fill="#DCD912"></path>
            <path d="M103.400218,139.582796 C101.039482,122.511555 116.865238,102.756221 116.865238,102.756221 C116.865238,102.756221 124.797822,86.1871174 141.545489,83.8310425 C158.293156,81.4749676 165.061185,82.3181471 179.45904,93.0092481 C193.856896,103.700349 196.669493,124.763269 196.669493,124.763269 C196.669493,124.763269 198.248976,139.247925 177.93601,149.188629 C157.623045,159.129334 127.758168,158.486908 127.758168,158.486908 C127.758168,158.486908 105.760953,156.654036 103.400218,139.582796 Z" id="Path-30" stroke="#000000"></path>
            <path d="M219.136837,117.096218 C219.136837,117.096218 231.769986,144.256694 233.281201,145.44109 C236.286238,147.796253 239.158402,151.544063 247.178712,151.544063 C255.199021,151.544063 266.69939,150.498351 266.699391,136.144918 C266.699391,128.862827 257.405511,118.406917 257.405511,118.406917 L245.530745,96.9948265 C245.530745,96.9948265 238.26843,87.075343 232.134087,82.7082867 C225.999744,78.3412305 220.822259,78.2057057 218.370456,77.6593394 C211.653264,76.1624619 210.450493,89.1774473 210.450493,89.1774473 L219.136837,117.096218 Z" id="Path-31" stroke="#000000"></path>
            <path d="M147.790262,32.2523278 C147.790262,32.2523278 150.069712,30.1397345 152.692748,29.0562531 C155.315785,27.9727716 159.032352,27.608627 159.032352,27.608627 C159.032352,27.608627 173.125031,53.4662248 177.294511,63.7349126 C181.463991,74.0036004 175.596362,57.0869809 190.366495,92.5875968 C205.136629,128.088213 219.294058,164.682529 219.294058,164.682529 L207.711735,173.896367 C207.711735,173.896367 196.526133,116.90167 192.540561,109.500651 C188.55499,102.099632 177.081996,85.4375889 168.504977,69.0656432 C159.927957,52.6936976 152.692749,33.4385405 152.692749,33.4385405 L147.790262,32.2523278 Z" id="Path-32" stroke="#000000" fill-opacity="0.5" fill="#000000"></path>
            <polygon id="Path-33" stroke="#000000" fill-opacity="0.75" fill="#000000" points="219.40703 165.16726 242.858048 162.639826 237.148989 171.942991 207.768222 174.614925"></polygon>
            <path d="M219.73938,206.579613 C219.73938,206.579613 238.963605,201.442228 246.147807,202.12813 C253.332008,202.814032 256.194938,206.453708 258.202076,212.121266 C260.209215,217.788824 259.511564,219.286673 253.661384,223.344226 C247.811205,227.401779 235.630146,228.579909 235.630146,228.579909 C235.630146,228.579909 246.46116,225.675626 248.316203,221.921442 C250.171245,218.167258 250.268446,209.238829 245.537402,207.595683 C240.806357,205.952536 219.73938,206.579613 219.73938,206.579613 Z" id="Path-34" stroke="#000000" fill-opacity="0.5" fill="#000000"></path>
            <path d="M232.160134,124.151503 C225.901814,120.326615 220.510263,119.166349 220.510263,119.166349 L217.948519,111.444701 C217.948519,111.444701 225.259383,111.219825 237.08142,118.094471 C248.903456,124.969118 250.563593,130.410733 250.563593,130.410733 C250.563593,130.410733 251.753537,132.557464 251.489256,134.098708 C251.224976,135.639952 249.458016,136.858303 249.458016,136.858303 C249.458016,136.858303 238.418453,127.97639 232.160134,124.151503 Z" id="Path-35" stroke="#000000" fill-opacity="0.5" fill="#000000"></path>
            <path d="M164.880265,141.521948 C164.880265,141.521948 180.57103,133.245069 182.630381,128.584411 C184.689733,123.923753 180.040697,119.441948 175.973543,116.415994 C171.906389,113.390041 168.193663,113.418365 159.531207,113.729778 C150.86875,114.041192 152.123118,114.478004 144.736364,117.538965 C137.349611,120.599926 135.112833,122.860388 132.053751,125.116029 C128.994669,127.37167 127.623289,130.15744 127.623289,130.15744 C127.623289,130.15744 142.131974,122.048884 149.604927,120.174087 C157.07788,118.299291 160.878703,118.680525 167.417005,120.174087 C173.955308,121.66765 177.136736,124.799685 177.136736,130.15744 C177.136736,135.515196 164.880265,141.521948 164.880265,141.521948 Z" id="Path-36" stroke="#000000" fill-opacity="0.5" fill="#000000"></path>
            <path d="M46.5016099,88.2233461 C46.5016099,88.2233461 73.3884122,80.7896341 83.4030572,85.6426788 C93.4177022,90.4957235 96.850408,101.713331 98.8295571,113.581196 C100.808706,125.449061 93.8748003,154.442106 93.8748003,154.442106 C93.8748003,154.442106 93.8747997,166.819869 97.7723474,171.96158 C101.669895,177.103291 129.364914,195.529589 148.625593,216.230407 C167.886273,236.931226 173.904861,252.607476 181.793719,262.265311 C189.682577,271.923145 189.485171,273.36268 200.204757,279.375542 C210.924344,285.388404 213.370287,286.30831 224.656994,286.308304 C235.943701,286.308299 277.516268,275.73136 277.516268,275.73136 C277.516268,275.73136 279.02205,277.518934 270.273775,285.429465 C261.5255,293.339995 248.231005,300.905234 248.231005,300.905234 C248.231005,300.905234 209.472331,310.695555 188.943056,309.986243 C168.413781,309.27693 157.004496,301.692313 147.685335,292.813498 C138.366175,283.934683 113.640146,251.590964 113.640146,251.590964 L81.6783656,209.236121 C81.6783656,209.236121 75.3261954,200.683072 71.1879462,186.396544 C67.049697,172.110016 72.3360936,173.296291 68.5503635,160.200446 C64.7646333,147.104601 58.4802006,138.274593 58.4802006,138.274593 C58.4802006,138.274593 48.7276937,112.788628 46.5016099,103.487177 C44.2755262,94.1857269 46.5016099,88.2233461 46.5016099,88.2233461 Z" id="Path-37" fill-opacity="0.5" fill="#010101"></path>
            <ellipse id="Oval" stroke="#000000" fill-opacity="0.75" fill="#D8D8D8" cx="212" cy="121.5" rx="7" ry="7.5"></ellipse>
            <ellipse id="Oval" stroke="#000000" fill-opacity="0.75" fill="#D8D8D8" cx="201" cy="92.5" rx="7" ry="7.5"></ellipse>
            <ellipse id="Oval" stroke="#000000" fill-opacity="0.75" fill="#D8D8D8" cx="192" cy="65.5" rx="7" ry="7.5"></ellipse>
            <ellipse id="Oval" stroke="#000000" fill-opacity="0.75" fill="#D8D8D8" cx="223" cy="147.5" rx="7" ry="7.5"></ellipse>
        </g>
    </g>
</svg>