<?xml version="1.0" encoding="UTF-8" standalone="no"?>
<svg width="265px" height="265px" viewBox="0 0 265 265" version="1.1" xmlns="http://www.w3.org/2000/svg" xmlns:xlink="http://www.w3.org/1999/xlink">
    <!-- Generator: Sketch 39.1 (31720) - http://www.bohemiancoding.com/sketch -->
    <title>uhu</title>
    <desc>Created with Sketch.</desc>
    <defs></defs>
    <g id="Page-1" stroke="none" stroke-width="1" fill="none" fill-rule="evenodd">
        <g id="UHU">
            <path d="M97.9465981,167.924328 C97.9465981,167.924328 98.0747113,170.072135 100.071034,170.637995 C102.067357,171.203855 104.497165,169.781094 104.497165,169.781094" id="Path-12" stroke="#000000"></path>
            <path d="M100.881553,165.321613 L97.6841472,170.103279 C97.6841472,170.103279 93.2030158,174.577692 87.7682923,173.384956 C82.3335688,172.19222 84.2812297,166.682313 77.9326295,166.989229 C71.5840293,167.296145 68.0706264,172.006388 65.1074467,174.480469 C62.144267,176.95455 61.1594658,180.993836 61.1594658,180.993836 C61.1594658,180.993836 57.8840563,183.641378 54.1798896,185.039252 C50.4757228,186.437126 49.7456103,183.702108 40.8887051,191.287447 C32.0318,198.872786 32.3924401,201.844556 30.8731122,204.999927 C29.3537844,208.155299 32.6180143,206.748457 30.8731122,212.088039 C29.1282102,217.427622 27.5325366,217.02607 25.2095296,222.331082 C22.8865225,227.636095 17.4516716,232.409758 21.14341,238.801392 C24.8351484,245.193025 30.2274512,243.180699 36.9358036,242.464195 C43.644156,241.747692 49.723765,235.748791 49.723765,235.748791 C49.723765,235.748791 63.0743862,235.370918 74.7720446,230.483583 C86.4697031,225.596248 91.8976553,220.676399 95.7897084,216.50223 C99.6817615,212.328061 100.944493,211.798762 97.6841499,207.248306 C94.4238066,202.697851 85.504831,203.044646 83.805163,199.77542 C82.1054949,196.506195 89.3861106,191.287447 89.3861106,191.287447 C89.3861106,191.287447 102.282977,190.154463 105.271529,188.356991 C108.260082,186.559518 104.445712,180.629895 103.038116,175.678888 C101.630519,170.727882 105.271529,165.321613 105.271529,165.321613 L100.881553,165.321613 Z" id="Path-22" stroke="#000000" fill="#7ED321"></path>
            <path d="M100.650466,167.093705 C99.4753772,166.790199 97.7693391,167.941253 97.7693391,167.941253 C97.7693391,167.941253 101.431088,158.008097 104.99643,150.456743 C108.561773,142.905388 113.417571,134.659756 113.417571,134.659756 L126.19344,144.013311 C126.19344,144.013311 119.57668,150.179329 114.249085,156.46707 C108.92149,162.754812 104.455996,169.668305 104.455996,169.668305 C104.455996,169.668305 101.825556,167.397211 100.650466,167.093705 Z" id="Path-9" stroke="#000000" fill="#D8D8D8"></path>
            <path d="M114.834576,125.672383 L110.026044,133.738722 C110.026044,133.738722 110.410544,134.661524 110.746214,135.201777 C111.081884,135.74203 111.586191,136.249743 111.586191,136.249743 L125.965995,145.119821 C125.965995,145.119821 126.909593,145.196341 127.780896,145.119821 C128.652199,145.043301 129.520974,144.807613 129.520974,144.807613 L133.386653,139.656534 L133.850904,140.006477 C133.850904,140.006477 138.625799,142.662059 143.874502,143.591296 C149.123205,144.520532 154.099408,143.591295 154.099408,143.591295 C154.099408,143.591295 149.640888,126.801431 137.435724,117.554705 C125.230561,108.307979 105.553148,106.812274 105.553148,106.812274 C105.553148,106.812274 106.792202,113.354717 109.20032,118.367068 C111.608437,123.379418 114.489141,125.412001 114.489141,125.412001 L114.834576,125.672383 Z" id="Combined-Shape" stroke="#000000" fill="#D8D8D8"></path>
            <path d="M136.582919,116.906073 C124.535083,107.518533 106.055371,106.185874 106.055371,106.185874 C106.055371,106.185874 116.746343,89.8705333 125.822169,79.9482067 C134.897995,70.0258801 148.049338,60.2751376 148.049338,60.2751376 C148.049338,60.2751376 160.367913,54.5615303 169.068852,52.2974022 C177.769792,50.0332741 188.010118,49.8766829 188.010118,49.8766829 C188.010118,49.8766829 183.396561,49.0622282 180.580785,46.9864205 C177.765009,44.9106127 177.461157,42.0999222 177.461157,42.0999222 C177.461157,42.0999222 175.930891,39.1759025 182.641461,35.5848912 C189.352031,31.9938799 198.85829,30.6497258 198.85829,30.6497258 C198.85829,30.6497258 201.051441,30.1551045 205.02094,32.0971099 C208.990439,34.0391152 214.216243,38.1633257 214.216243,38.1633257 C214.216243,38.1633257 216.378467,39.1937183 218.993695,39.1961413 C221.608923,39.1985642 222.732508,37.8241823 224.916612,38.1732393 C227.100715,38.5222963 226.641841,40.060698 228.642316,40.7381554 C230.642791,41.4156127 231.17523,41.1928696 237.47984,40.7381554 C243.78445,40.2834411 246.078181,38.0176162 250.022328,39.1961416 C253.966474,40.3746669 253.667711,36.439856 255.106197,46.0049754 C256.544682,55.5700948 256.893353,59.1017284 254.032825,65.8636986 C252.658562,69.1123041 226.187352,82.3527031 226.187352,82.3527031 L199.803686,89.9951791 C199.803686,89.9951791 198.055291,93.7743924 196.768325,94.5247885 C195.481359,95.2751846 194.29707,92.8478432 192.860568,94.0435288 C191.424066,95.2392143 194.247571,97.03022 191.989073,98.5028418 C190.982185,99.159369 188.703557,97.9871685 185.534421,101.22908 C182.365285,104.470992 181.510408,109.222136 181.510408,109.222136 C181.510408,109.222136 179.543658,111.725305 170.926297,122.860535 C162.308937,133.995764 154.592308,144.005319 154.592308,144.005319 C154.592308,144.005319 148.630755,126.293614 136.582919,116.906073 Z" id="Path-15" stroke="#000000" fill="#F8E81C"></path>
            <path d="M187.802834,49.7279791 C187.802834,49.7279791 197.938669,49.8646445 208.010335,52.3190308 C218.082001,54.7734171 227.843824,59.4856553 227.843824,59.4856553 C227.843824,59.4856553 235.129677,62.0563413 237.852044,62.4804607 C240.574411,62.9045802 243.323445,63.7286716 245.736954,60.9844098 C248.150464,58.2401481 247.941977,56.1756319 247.660189,53.5212791 C247.378402,50.8669263 246.989179,48.5177704 244.384199,48.2418418 C241.779218,47.9659132 237.28126,51.0966465 236.31003,52.319031 C235.3388,53.5414155 237.987502,54.5778284 239.114675,54.8740335 C240.241847,55.1702386 243.323444,54.1620575 243.323444,54.1620575" id="Path-16" stroke="#000000"></path>
            <path d="M126.997379,111.406731 C135.426223,115.198756 141.903814,120.708382 141.903814,120.708382 C141.903814,120.708382 161.329933,90.0132348 180.711012,77.7969575 C200.092091,65.5806802 234.911313,62.0839171 234.911313,62.0839171 C234.911313,62.0839171 218.333035,55.1498263 207.976087,52.5452412 C197.61914,49.940656 188.387736,50.3840785 188.387736,50.3840785 C188.387736,50.3840785 167.940519,50.9425876 143.792803,67.9356389 C119.645087,84.9286902 109.298918,106.039874 109.298918,106.039874 C109.298918,106.039874 118.568535,107.614706 126.997379,111.406731 Z" id="Path-17" stroke="#000000" fill="#FFFFFF"></path>
            <polygon id="Path-18" fill="#000000" points="130 92.0021782 149.746069 96.6795902 159.363152 89.7076327 143.453643 74 140.899542 82.1552796 151.297996 88.3260388 147.301017 90.96035 134.648572 80.5420682"></polygon>
            <polygon id="Path-19" fill="#000000" points="154 69.7452175 163.896467 85.5835293 169.525583 77.9798058 164.967134 73.9828266 167.913273 69.0530687 172.721364 77.207447 183.771412 69.203575 167.53205 62 165.858456 64.7343484 166.579444 67.0685482 163.69459 69.3928344 158.244819 64.943435"></polygon>
            <polygon id="Path-20" fill="#0B0A0A" points="177 57.1787544 187.262728 66.5982504 200.041887 64.9230706 196.242811 52 186.52696 52 189.712827 58.3584716 186.52696 59.3200898 183.411389 54.3714059"></polygon>
            <path d="M133.470047,139.356883 C133.470047,139.356883 128.902357,133.312323 124.209373,129.837821 C119.51639,126.36332 114.948701,125.644402 114.948701,125.644402" id="Path-21" stroke="#000000"></path>
            <path d="M61.4120939,180.814298 C61.4120939,180.814298 60.1837046,182.55637 60.5792469,186.803688 C60.9747891,191.051006 62.6291842,193.883369 62.6291842,193.883369" id="Path-23" stroke="#000000"></path>
            <path d="M50.0384962,235.526682 C50.0384962,235.526682 52.5890943,232.646758 52.9328078,229.642959 C53.2765213,226.63916 51.736851,220.68433 51.736851,220.68433" id="Path-24" stroke="#000000"></path>
            <path d="M89.1544434,191.637474 C89.1544434,191.637474 85.3325029,192.836146 81.9047355,191.380992 C78.4769681,189.925838 77.9105278,186.864214 77.9105278,186.864214" id="Path-25" stroke="#000000"></path>
        </g>
    </g>
</svg>